<svg xmlns="http://www.w3.org/2000/svg" xmlns:xlink="http://www.w3.org/1999/xlink" version="1.1" width="1080" height="1080" viewBox="0 0 1080 1080" xml:space="preserve">
<desc>Created with Fabric.js 5.2.4</desc>
<defs>
</defs>
<g transform="matrix(1 0 0 1 540 540)" id="59f5e49e-590b-447b-8483-f019262df5bc"  >
<rect style="stroke: none; stroke-width: 1; stroke-dasharray: none; stroke-linecap: butt; stroke-dashoffset: 0; stroke-linejoin: miter; stroke-miterlimit: 4; fill: rgb(255,255,255); fill-rule: nonzero; opacity: 1; visibility: hidden;" vector-effect="non-scaling-stroke"  x="-540" y="-540" rx="0" ry="0" width="1080" height="1080" />
</g>
<g transform="matrix(1 0 0 1 540 540)" id="deb16834-17d0-44d3-be0b-ca400166aa98"  >
</g>
<g transform="matrix(0.28 0 0 -0.28 540 368.04)"  >
<path style="stroke: none; stroke-width: 1; stroke-dasharray: none; stroke-linecap: butt; stroke-dashoffset: 0; stroke-linejoin: miter; stroke-miterlimit: 4; fill: rgb(17,34,64); fill-rule: nonzero; opacity: 1;" vector-effect="non-scaling-stroke"  transform=" translate(-5999.62, -7172.45)" d="M 5227 8312 C 5213 8297 5210 8272 5210 8182 C 5210 8073 5209 8070 5188 8070 C 5129 8070 5100 8041 5100 7985 L 5100 7960 L 4987 7960 C 4889 7960 4871 7957 4857 7942 C 4835 7918 4836 7897 4858 7877 C 4873 7863 4898 7860 4988 7860 L 5100 7860 L 5100 7805 L 5100 7750 L 4987 7750 C 4889 7750 4871 7747 4857 7732 C 4835 7708 4836 7687 4858 7667 C 4873 7653 4898 7650 4988 7650 L 5100 7650 L 5100 7595 L 5100 7540 L 4987 7540 C 4889 7540 4871 7537 4857 7522 C 4835 7498 4836 7477 4858 7457 C 4873 7443 4898 7440 4988 7440 L 5100 7440 L 5100 7385 L 5100 7330 L 4987 7330 C 4889 7330 4871 7327 4857 7312 C 4836 7289 4835 7266 4856 7246 C 4868 7233 4895 7230 4986 7230 L 5100 7230 L 5100 7175 L 5100 7120 L 4992 7120 C 4877 7120 4840 7108 4840 7070 C 4840 7029 4865 7020 4986 7020 L 5100 7020 L 5100 6965 L 5100 6910 L 4991 6910 C 4900 6910 4878 6907 4860 6892 C 4831 6868 4839 6828 4875 6812 C 4889 6805 4946 6800 5000 6800 L 5100 6800 L 5100 6750 L 5100 6700 L 4990 6700 C 4893 6700 4878 6698 4860 6680 C 4836 6656 4835 6641 4854 6614 C 4867 6598 4883 6595 4984 6592 L 5100 6588 L 5100 6540 L 5100 6492 L 4984 6488 C 4883 6485 4867 6482 4854 6466 C 4835 6439 4836 6424 4860 6400 C 4878 6382 4893 6380 4989 6380 L 5097 6380 L 5103 6344 C 5111 6294 5126 6280 5171 6280 L 5210 6280 L 5210 6169 C 5210 6108 5215 6050 5220 6039 C 5232 6017 5282 6013 5298 6033 C 5304 6040 5311 6097 5312 6161 L 5315 6275 L 5368 6278 L 5420 6281 L 5420 6166 C 5420 6042 5428 6020 5475 6020 C 5518 6020 5530 6053 5530 6172 L 5530 6280 L 5580 6280 L 5630 6280 L 5630 6168 C 5630 6106 5634 6050 5638 6044 C 5642 6038 5655 6028 5668 6021 C 5687 6011 5694 6013 5715 6034 C 5739 6058 5740 6065 5740 6170 L 5740 6280 L 5790 6280 L 5840 6280 L 5840 6178 C 5840 6121 5843 6065 5846 6054 C 5858 6007 5932 6007 5944 6054 C 5947 6065 5950 6121 5950 6178 L 5950 6280 L 6000 6280 L 6050 6280 L 6050 6170 C 6050 6066 6051 6058 6074 6035 C 6090 6019 6105 6012 6117 6016 C 6154 6029 6160 6051 6160 6167 L 6160 6280 L 6210 6280 L 6260 6280 L 6260 6170 C 6260 6066 6261 6058 6284 6035 C 6300 6019 6315 6012 6327 6016 C 6364 6029 6370 6051 6370 6167 L 6370 6280 L 6419 6280 L 6468 6280 L 6472 6164 C 6475 6057 6477 6047 6498 6030 C 6511 6019 6529 6014 6538 6017 C 6574 6029 6580 6051 6580 6167 L 6580 6281 L 6633 6278 L 6685 6275 L 6690 6156 C 6694 6051 6697 6036 6715 6024 C 6731 6013 6740 6013 6760 6023 C 6784 6035 6785 6039 6788 6158 L 6791 6280 L 6829 6280 C 6873 6280 6889 6294 6897 6343 L 6902 6378 L 7017 6382 C 7117 6385 7134 6388 7146 6404 C 7165 6431 7164 6446 7140 6470 C 7122 6488 7107 6490 7010 6490 L 6900 6490 L 6900 6539 L 6900 6588 L 7016 6592 C 7117 6595 7133 6598 7146 6614 C 7165 6641 7164 6656 7140 6680 C 7122 6698 7107 6700 7010 6700 L 6900 6700 L 6900 6749 L 6900 6798 L 7016 6802 C 7117 6805 7133 6808 7146 6824 C 7165 6851 7164 6866 7140 6890 C 7122 6908 7107 6910 7010 6910 L 6900 6910 L 6900 6965 L 6900 7020 L 7014 7020 C 7105 7020 7132 7023 7144 7036 C 7164 7055 7164 7070 7144 7098 C 7130 7119 7121 7120 7014 7120 L 6900 7120 L 6900 7175 L 6900 7230 L 7014 7230 C 7105 7230 7132 7233 7144 7246 C 7164 7265 7164 7280 7144 7308 C 7130 7329 7121 7330 7014 7330 L 6900 7330 L 6900 7385 L 6900 7440 L 7014 7440 C 7105 7440 7132 7443 7144 7456 C 7164 7475 7164 7490 7144 7518 C 7130 7539 7121 7540 7014 7540 L 6900 7540 L 6900 7595 L 6900 7650 L 7013 7650 C 7111 7650 7129 7653 7143 7668 C 7165 7692 7164 7713 7142 7733 C 7127 7747 7102 7750 7012 7750 L 6900 7750 L 6900 7805 L 6900 7860 L 7013 7860 C 7111 7860 7129 7863 7143 7878 C 7165 7902 7164 7923 7142 7943 C 7127 7957 7102 7960 7013 7960 L 6903 7960 L 6896 8002 C 6888 8050 6868 8069 6823 8070 L 6790 8070 L 6790 8183 C 6790 8285 6788 8299 6770 8315 C 6754 8330 6744 8332 6722 8324 L 6695 8315 L 6692 8192 L 6689 8070 L 6635 8070 L 6580 8070 L 6580 8183 C 6580 8283 6578 8299 6561 8314 C 6535 8337 6498 8331 6483 8300 C 6475 8285 6470 8235 6470 8173 L 6470 8070 L 6420 8070 L 6370 8070 L 6370 8178 C 6370 8297 6358 8330 6315 8330 C 6272 8330 6260 8297 6260 8178 L 6260 8070 L 6210 8070 L 6160 8070 L 6160 8178 C 6160 8297 6148 8330 6105 8330 C 6062 8330 6050 8297 6050 8178 L 6050 8070 L 6000 8070 L 5950 8070 L 5950 8178 C 5950 8297 5938 8330 5895 8330 C 5852 8330 5840 8297 5840 8178 L 5840 8070 L 5790 8070 L 5740 8070 L 5740 8173 C 5740 8235 5735 8285 5727 8300 C 5712 8331 5675 8337 5649 8314 C 5632 8299 5630 8283 5630 8183 L 5630 8070 L 5580 8070 L 5530 8070 L 5530 8173 C 5530 8235 5525 8285 5517 8300 C 5502 8331 5465 8337 5439 8314 C 5422 8299 5420 8283 5420 8183 L 5420 8070 L 5365 8070 L 5310 8070 L 5310 8190 C 5310 8298 5308 8310 5291 8320 C 5263 8335 5245 8332 5227 8312 z M 6570 7731 C 6576 7718 6580 7523 6580 7166 L 6580 6621 L 6558 6606 C 6538 6592 6468 6590 5998 6590 C 5473 6590 5460 6590 5440 6610 C 5420 6630 5420 6643 5420 7172 C 5420 7662 5422 7715 5437 7732 C 5452 7749 5483 7750 6006 7750 C 6543 7750 6560 7749 6570 7731 z" stroke-linecap="round" />
</g>
<g transform="matrix(0.28 0 0 -0.28 540.11 367.32)"  >
<path style="stroke: none; stroke-width: 1; stroke-dasharray: none; stroke-linecap: butt; stroke-dashoffset: 0; stroke-linejoin: miter; stroke-miterlimit: 4; fill: rgb(17,34,64); fill-rule: nonzero; opacity: 1;" vector-effect="non-scaling-stroke"  transform=" translate(-6000, -7175)" d="M 5530 7175 L 5530 6700 L 6000 6700 L 6470 6700 L 6470 7175 L 6470 7650 L 6000 7650 L 5530 7650 L 5530 7175 z" stroke-linecap="round" />
</g>
<g transform="matrix(0.28 0 0 -0.28 397.27 906.3)"  >
<path style="stroke: rgb(17,34,64); stroke-width: 1; stroke-dasharray: none; stroke-linecap: butt; stroke-dashoffset: 0; stroke-linejoin: miter; stroke-miterlimit: 4; fill: rgb(17,34,64); fill-rule: nonzero; opacity: 1;" vector-effect="non-scaling-stroke"  transform=" translate(-5495, -5269.5)" d="M 4970 5730 C 4970 5725 4986 5720 5005 5720 L 5040 5720 L 5040 5270 L 5040 4820 L 5005 4820 C 4986 4820 4970 4816 4970 4810 C 4970 4804 5007 4800 5060 4800 C 5113 4800 5150 4804 5150 4810 C 5150 4816 5132 4820 5110 4820 L 5070 4820 L 5070 5248 C 5070 5483 5074 5668 5079 5660 C 5083 5652 5138 5455 5201 5222 L 5315 4799 L 5399 4802 L 5484 4805 L 5581 5222 C 5634 5451 5680 5645 5683 5652 C 5686 5659 5689 5475 5689 5243 L 5690 4820 L 5655 4820 C 5636 4820 5620 4816 5620 4810 C 5620 4804 5693 4800 5820 4800 C 5947 4800 6020 4804 6020 4810 C 6020 4816 6004 4820 5985 4820 L 5950 4820 L 5950 5270 L 5950 5720 L 5985 5720 C 6004 5720 6020 5725 6020 5730 C 6020 5737 5959 5740 5843 5738 L 5667 5735 L 5589 5400 C 5545 5216 5510 5063 5509 5060 C 5507 5045 5485 5126 5410 5418 L 5327 5740 L 5148 5740 C 5036 5740 4970 5736 4970 5730 z" stroke-linecap="round" />
</g>
<g transform="matrix(0.28 0 0 -0.28 699.92 906.16)"  >
<path style="stroke: rgb(17,34,64); stroke-width: 1; stroke-dasharray: none; stroke-linecap: butt; stroke-dashoffset: 0; stroke-linejoin: miter; stroke-miterlimit: 4; fill: rgb(17,34,64); fill-rule: nonzero; opacity: 1;" vector-effect="non-scaling-stroke"  transform=" translate(-6565, -5270)" d="M 6090 5730 C 6090 5725 6108 5720 6130 5720 L 6170 5720 L 6170 5270 L 6170 4820 L 6130 4820 C 6108 4820 6090 4816 6090 4810 C 6090 4804 6167 4800 6300 4800 C 6433 4800 6510 4804 6510 4810 C 6510 4816 6492 4820 6470 4820 L 6430 4820 L 6430 5045 L 6430 5270 L 6565 5270 L 6700 5270 L 6700 5045 L 6700 4820 L 6660 4820 C 6638 4820 6620 4816 6620 4810 C 6620 4804 6697 4800 6830 4800 C 6963 4800 7040 4804 7040 4810 C 7040 4816 7022 4820 7000 4820 L 6960 4820 L 6960 5270 L 6960 5720 L 7000 5720 C 7022 5720 7040 5725 7040 5730 C 7040 5736 6963 5740 6830 5740 C 6697 5740 6620 5736 6620 5730 C 6620 5725 6638 5720 6660 5720 L 6700 5720 L 6700 5510 L 6700 5300 L 6565 5300 L 6430 5300 L 6430 5510 L 6430 5720 L 6470 5720 C 6492 5720 6510 5725 6510 5730 C 6510 5736 6433 5740 6300 5740 C 6167 5740 6090 5736 6090 5730 z" stroke-linecap="round" />
</g>
<g transform="matrix(NaN NaN NaN NaN 0 0)"  >
<g style=""   >
</g>
</g>
<g transform="matrix(NaN NaN NaN NaN 0 0)"  >
<g style=""   >
</g>
</g>
<g transform="matrix(NaN NaN NaN NaN 0 0)"  >
<g style=""   >
</g>
</g>
<g transform="matrix(NaN NaN NaN NaN 0 0)"  >
<g style=""   >
</g>
</g>
<g transform="matrix(NaN NaN NaN NaN 0 0)"  >
<g style=""   >
</g>
</g>
<g transform="matrix(NaN NaN NaN NaN 0 0)"  >
<g style=""   >
</g>
</g>
<g transform="matrix(NaN NaN NaN NaN 0 0)"  >
<g style=""   >
</g>
</g>
<g transform="matrix(NaN NaN NaN NaN 0 0)"  >
<g style=""   >
</g>
</g>
<g transform="matrix(NaN NaN NaN NaN 0 0)"  >
<g style=""   >
</g>
</g>
<g transform="matrix(NaN NaN NaN NaN 0 0)"  >
<g style=""   >
</g>
</g>
<g transform="matrix(NaN NaN NaN NaN 0 0)"  >
<g style=""   >
</g>
</g>
<g transform="matrix(NaN NaN NaN NaN 0 0)"  >
<g style=""   >
</g>
</g>
<g transform="matrix(NaN NaN NaN NaN 0 0)"  >
<g style=""   >
</g>
</g>
<g transform="matrix(NaN NaN NaN NaN 0 0)"  >
<g style=""   >
</g>
</g>
<g transform="matrix(NaN NaN NaN NaN 0 0)"  >
<g style=""   >
</g>
</g>
<g transform="matrix(NaN NaN NaN NaN 0 0)"  >
<g style=""   >
</g>
</g>
</svg>